%TF.GenerationSoftware,KiCad,Pcbnew,10.0.6-alt2*%
%TF.CreationDate,2026-10-01T00:40:10+03:00*%
%TF.ProjectId,hldi_shild_mount,686c6469-5f73-4686-996c-645f6d6f756e,rev?*%
%TF.SameCoordinates,Original*%
%TF.FileFunction,Copper,L2,Bot*%
%TF.FilePolarity,Positive*%
%FSLAX46Y46*%
G04 Gerber Fmt 4.6, Leading zero omitted, Abs format (unit mm)*
G04 Created by KiCad (PCBNEW 10.0.6-alt2) date 2026-10-01 00:40:10*
%MOMM*%
%LPD*%
G01*
G04 APERTURE LIST*
G04 Aperture macros list*
%AMRoundRect*
0 Rectangle with rounded corners*
0 $1 Rounding radius*
0 $2 $3 $4 $5 $6 $7 $8 $9 X,Y pos of 4 corners*
0 Add a 4 corners polygon primitive as box body*
4,1,4,$2,$3,$4,$5,$6,$7,$8,$9,$2,$3,0*
0 Add four circle primitives for the rounded corners*
1,1,$1+$1,$2,$3*
1,1,$1+$1,$4,$5*
1,1,$1+$1,$6,$7*
1,1,$1+$1,$8,$9*
0 Add four rect primitives between the rounded corners*
20,1,$1+$1,$2,$3,$4,$5,0*
20,1,$1+$1,$4,$5,$6,$7,0*
20,1,$1+$1,$6,$7,$8,$9,0*
20,1,$1+$1,$8,$9,$2,$3,0*%
G04 Aperture macros list end*
%TA.AperFunction,ComponentPad*%
%ADD10RoundRect,0.250000X-0.600000X-0.725000X0.600000X-0.725000X0.600000X0.725000X-0.600000X0.725000X0*%
%TD*%
%TA.AperFunction,ComponentPad*%
%ADD11O,1.700000X1.950000*%
%TD*%
%TA.AperFunction,ComponentPad*%
%ADD12RoundRect,0.250000X0.600000X0.725000X-0.600000X0.725000X-0.600000X-0.725000X0.600000X-0.725000X0*%
%TD*%
%TA.AperFunction,ComponentPad*%
%ADD13RoundRect,0.250000X0.600000X0.750000X-0.600000X0.750000X-0.600000X-0.750000X0.600000X-0.750000X0*%
%TD*%
%TA.AperFunction,ComponentPad*%
%ADD14O,1.700000X2.000000*%
%TD*%
%TA.AperFunction,ComponentPad*%
%ADD15R,2.000000X2.000000*%
%TD*%
%TA.AperFunction,ComponentPad*%
%ADD16C,2.000000*%
%TD*%
%TA.AperFunction,SMDPad,CuDef*%
%ADD17R,2.000000X0.610000*%
%TD*%
%TA.AperFunction,SMDPad,CuDef*%
%ADD18R,3.600000X2.680000*%
%TD*%
%TA.AperFunction,ViaPad*%
%ADD19C,0.600000*%
%TD*%
%TA.AperFunction,Conductor*%
%ADD20C,0.600000*%
%TD*%
%TA.AperFunction,Conductor*%
%ADD21C,0.400000*%
%TD*%
%TA.AperFunction,Conductor*%
%ADD22C,1.000000*%
%TD*%
%TA.AperFunction,Profile*%
%ADD23C,0.050000*%
%TD*%
%TA.AperFunction,Profile*%
%ADD24C,0.052721*%
%TD*%
G04 APERTURE END LIST*
D10*
%TO.P,J4,1,Pin_1_1*%
%TO.N,GND*%
X45000000Y-23000000D03*
D11*
%TO.P,J4,2,Pin_2_2*%
%TO.N,Net-(J2-Pin_15)*%
X47500000Y-23000000D03*
%TO.P,J4,3,Pin_3_3*%
%TO.N,Net-(J2-Pin_14)*%
X50000000Y-23000000D03*
%TO.P,J4,4,Pin_4_4*%
%TO.N,Net-(J2-Pin_13)*%
X52500000Y-23000000D03*
%TD*%
D12*
%TO.P,J5,1,Pin_1_1*%
%TO.N,Net-(J2-Pin_5)*%
X41000000Y-67000000D03*
D11*
%TO.P,J5,2,Pin_2_2*%
%TO.N,GND*%
X38500000Y-67000000D03*
%TO.P,J5,3,Pin_3_3*%
%TO.N,Net-(J2-Pin_3)*%
X36000000Y-67000000D03*
%TO.P,J5,4,Pin_4_4*%
%TO.N,Net-(J2-Pin_2)*%
X33500000Y-67000000D03*
%TO.P,J5,5,Pin_5_5*%
%TO.N,Net-(J2-Pin_1)*%
X31000000Y-67000000D03*
%TD*%
D10*
%TO.P,J1,1,Pin_1_1*%
%TO.N,Net-(J1-Pin_1)*%
X31000000Y-23000000D03*
D11*
%TO.P,J1,2,Pin_2_2*%
%TO.N,GND*%
X33500000Y-23000000D03*
%TO.P,J1,3,Pin_3_3*%
%TO.N,Net-(J1-Pin_3)*%
X36000000Y-23000000D03*
%TD*%
D13*
%TO.P,J3,1,Pin_1_1*%
%TO.N,GND*%
X53950000Y-67025000D03*
D14*
%TO.P,J3,2,Pin_2_2*%
%TO.N,Net-(J2-Pin_7)*%
X51450000Y-67025000D03*
%TD*%
D15*
%TO.P,SW1,1,A_1*%
%TO.N,GND*%
X60000000Y-39000000D03*
D16*
%TO.P,SW1,2,B_2*%
%TO.N,unconnected-(SW1-B-Pad2)*%
X60000000Y-44080000D03*
%TO.P,SW1,3,C_3*%
%TO.N,Net-(J2-Pin_10)*%
X60000000Y-49160000D03*
%TD*%
D17*
%TO.P,J2,1,Pin_1_1*%
%TO.N,Net-(J2-Pin_1)*%
X18700000Y-55000000D03*
%TO.P,J2,2,Pin_2_2*%
%TO.N,Net-(J2-Pin_2)*%
X18700000Y-54000000D03*
%TO.P,J2,3,Pin_3_3*%
%TO.N,Net-(J2-Pin_3)*%
X18700000Y-53000000D03*
%TO.P,J2,4,Pin_4_4*%
%TO.N,GND*%
X18700000Y-52000000D03*
%TO.P,J2,5,Pin_5_5*%
%TO.N,Net-(J2-Pin_5)*%
X18700000Y-51000000D03*
%TO.P,J2,6,Pin_6_6*%
%TO.N,GND*%
X18700000Y-50000000D03*
%TO.P,J2,7,Pin_7_7*%
%TO.N,Net-(J2-Pin_7)*%
X18700000Y-49000000D03*
%TO.P,J2,8,Pin_8_8*%
%TO.N,GND*%
X18700000Y-48000000D03*
%TO.P,J2,9,Pin_9_9*%
X18700000Y-47000000D03*
%TO.P,J2,10,Pin_10_10*%
%TO.N,Net-(J2-Pin_10)*%
X18700000Y-46000000D03*
%TO.P,J2,11,Pin_11_11*%
%TO.N,GND*%
X18700000Y-45000000D03*
%TO.P,J2,12,Pin_12_12*%
X18700000Y-44000000D03*
%TO.P,J2,13,Pin_13_13*%
%TO.N,Net-(J2-Pin_13)*%
X18700000Y-43000000D03*
%TO.P,J2,14,Pin_14_14*%
%TO.N,Net-(J2-Pin_14)*%
X18700000Y-42000000D03*
%TO.P,J2,15,Pin_15_15*%
%TO.N,Net-(J2-Pin_15)*%
X18700000Y-41000000D03*
%TO.P,J2,16,Pin_16_16*%
%TO.N,GND*%
X18700000Y-40000000D03*
%TO.P,J2,17,Pin_17_17*%
X18700000Y-39000000D03*
%TO.P,J2,18,Pin_18_18*%
%TO.N,Net-(J1-Pin_3)*%
X18700000Y-38000000D03*
%TO.P,J2,19,Pin_19_19*%
%TO.N,GND*%
X18700000Y-37000000D03*
%TO.P,J2,20,Pin_20_20*%
X18700000Y-36000000D03*
%TO.P,J2,21,Pin_21_21*%
%TO.N,Net-(J1-Pin_1)*%
X18700000Y-35000000D03*
%TO.P,J2,22,Pin_22_22*%
X18700000Y-34000000D03*
D18*
%TO.P,J2,MP,MountPin_MP*%
%TO.N,GND*%
X15900000Y-57990000D03*
X15900000Y-31010000D03*
%TD*%
D19*
%TO.N,*%
X24976750Y-30000000D03*
X62976750Y-60000000D03*
X62976750Y-30000000D03*
%TO.N,GND*%
X24976750Y-60000000D03*
%TD*%
%TO.N,GND*%
D20*
X15900000Y-31010000D02*
X15900000Y-33600000D01*
X14700000Y-48000000D02*
X14600000Y-47900000D01*
X18700000Y-40000000D02*
X18700000Y-39000000D01*
X14600000Y-54700000D02*
X15900000Y-56000000D01*
X18700000Y-40000000D02*
X14600000Y-40000000D01*
X18700000Y-37000000D02*
X14700000Y-37000000D01*
X18700000Y-48000000D02*
X14700000Y-48000000D01*
X14600000Y-47000000D02*
X14600000Y-47900000D01*
X14600000Y-51900000D02*
X14600000Y-54700000D01*
X18700000Y-37000000D02*
X18700000Y-36000000D01*
X14700000Y-50000000D02*
X14600000Y-49900000D01*
X18700000Y-36000000D02*
X14600000Y-36000000D01*
X18700000Y-50000000D02*
X14700000Y-50000000D01*
D21*
X18700000Y-52000000D02*
X14700000Y-52000000D01*
D20*
X14600000Y-36900000D02*
X14600000Y-38800000D01*
X18700000Y-44000000D02*
X14700000Y-44000000D01*
X15900000Y-33600000D02*
X14600000Y-34900000D01*
X14600000Y-36000000D02*
X14600000Y-36900000D01*
X14600000Y-49900000D02*
X14600000Y-51900000D01*
X33900000Y-22600000D02*
X33500000Y-23000000D01*
X18700000Y-37000000D02*
X20600000Y-37000000D01*
X14600000Y-40000000D02*
X14600000Y-43900000D01*
X20600000Y-37000000D02*
X21100000Y-36500000D01*
X14600000Y-34900000D02*
X14600000Y-36000000D01*
X18700000Y-39000000D02*
X14800000Y-39000000D01*
X14600000Y-38800000D02*
X14600000Y-40000000D01*
X20600000Y-36000000D02*
X21100000Y-36500000D01*
X18700000Y-44000000D02*
X18700000Y-45000000D01*
X15900000Y-56000000D02*
X15900000Y-57990000D01*
X14600000Y-47900000D02*
X14600000Y-49900000D01*
X14600000Y-45000000D02*
X14600000Y-47000000D01*
X18700000Y-47000000D02*
X18700000Y-48000000D01*
X18700000Y-47000000D02*
X14600000Y-47000000D01*
D21*
X14700000Y-52000000D02*
X14600000Y-51900000D01*
D20*
X14800000Y-39000000D02*
X14600000Y-38800000D01*
X18700000Y-36000000D02*
X20600000Y-36000000D01*
X18700000Y-45000000D02*
X14600000Y-45000000D01*
X14700000Y-44000000D02*
X14600000Y-43900000D01*
X14600000Y-43900000D02*
X14600000Y-45000000D01*
X14700000Y-37000000D02*
X14600000Y-36900000D01*
%TO.N,Net-(J1-Pin_1)*%
X20400000Y-34000000D02*
X20700000Y-33700000D01*
D22*
X31000000Y-23000000D02*
X22500000Y-23000000D01*
D20*
X18700000Y-34000000D02*
X20400000Y-34000000D01*
D22*
X20600000Y-24900000D02*
X20600000Y-33800000D01*
D20*
X18700000Y-35000000D02*
X19400000Y-35000000D01*
X19400000Y-35000000D02*
X20400000Y-34000000D01*
D22*
X22500000Y-23000000D02*
X20600000Y-24900000D01*
X20600000Y-33800000D02*
X20400000Y-34000000D01*
D20*
X18700000Y-35000000D02*
X18700000Y-34000000D01*
%TO.N,Net-(J1-Pin_3)*%
X25000000Y-38000000D02*
X18700000Y-38000000D01*
X36000000Y-23000000D02*
X36000000Y-27000000D01*
X36000000Y-27000000D02*
X25000000Y-38000000D01*
%TO.N,Net-(J2-Pin_10)*%
X60000000Y-49160000D02*
X47160000Y-49160000D01*
X44000000Y-46000000D02*
X18700000Y-46000000D01*
X47160000Y-49160000D02*
X44000000Y-46000000D01*
%TO.N,Net-(J2-Pin_13)*%
X52500000Y-27800000D02*
X37300000Y-43000000D01*
X52500000Y-23000000D02*
X52500000Y-27800000D01*
X37300000Y-43000000D02*
X18700000Y-43000000D01*
%TO.N,Net-(J2-Pin_1)*%
D21*
X18700000Y-55000000D02*
X28000000Y-55000000D01*
X28000000Y-55000000D02*
X31000000Y-58000000D01*
X31000000Y-58000000D02*
X31000000Y-67000000D01*
%TO.N,Net-(J2-Pin_3)*%
X32000000Y-53000000D02*
X18700000Y-53000000D01*
X36000000Y-57000000D02*
X32000000Y-53000000D01*
X36000000Y-67000000D02*
X36000000Y-57000000D01*
%TO.N,Net-(J2-Pin_2)*%
X33500000Y-58500000D02*
X33500000Y-67000000D01*
X18700000Y-54000000D02*
X29000000Y-54000000D01*
X29000000Y-54000000D02*
X33500000Y-58500000D01*
%TO.N,Net-(J2-Pin_7)*%
D20*
X43300000Y-49000000D02*
X51450000Y-57150000D01*
X51450000Y-57150000D02*
X51450000Y-67025000D01*
X43300000Y-49000000D02*
X18700000Y-49000000D01*
%TO.N,Net-(J2-Pin_5)*%
D21*
X41000000Y-56000000D02*
X36000000Y-51000000D01*
X41000000Y-67000000D02*
X41000000Y-56000000D01*
X36000000Y-51000000D02*
X18700000Y-51000000D01*
%TO.N,Net-(J2-Pin_15)*%
D20*
X33000000Y-41000000D02*
X18700000Y-41000000D01*
X47500000Y-23000000D02*
X47500000Y-26500000D01*
X47500000Y-26500000D02*
X33000000Y-41000000D01*
%TO.N,Net-(J2-Pin_14)*%
X35300000Y-42000000D02*
X18700000Y-42000000D01*
X50000000Y-23000000D02*
X50000000Y-27300000D01*
X50000000Y-27300000D02*
X35300000Y-42000000D01*
%TD*%
%TA.AperFunction,Conductor*%
%TO.N,GND*%
G36*
X67419289Y-20520185D02*
G01*
X67465044Y-20572989D01*
X67476250Y-20624500D01*
X67476250Y-69375500D01*
X67456565Y-69442539D01*
X67403761Y-69488294D01*
X67352250Y-69499500D01*
X10601250Y-69499500D01*
X10534211Y-69479815D01*
X10488456Y-69427011D01*
X10477250Y-69375500D01*
X10477250Y-59868872D01*
X22976250Y-59868872D01*
X22976250Y-60131127D01*
X22997186Y-60290140D01*
X23010480Y-60391116D01*
X23075581Y-60634076D01*
X23078352Y-60644418D01*
X23078355Y-60644428D01*
X23178703Y-60886690D01*
X23178708Y-60886700D01*
X23309825Y-61113803D01*
X23469468Y-61321851D01*
X23469476Y-61321860D01*
X23654890Y-61507274D01*
X23654898Y-61507281D01*
X23862946Y-61666924D01*
X24090049Y-61798041D01*
X24090059Y-61798046D01*
X24332321Y-61898394D01*
X24332331Y-61898398D01*
X24585634Y-61966270D01*
X24845630Y-62000500D01*
X24845637Y-62000500D01*
X25107863Y-62000500D01*
X25107870Y-62000500D01*
X25367866Y-61966270D01*
X25621169Y-61898398D01*
X25863447Y-61798043D01*
X26090553Y-61666924D01*
X26298601Y-61507282D01*
X26298605Y-61507277D01*
X26298610Y-61507274D01*
X26484024Y-61321860D01*
X26484027Y-61321855D01*
X26484032Y-61321851D01*
X26643674Y-61113803D01*
X26774793Y-60886697D01*
X26875148Y-60644419D01*
X26943020Y-60391116D01*
X26977250Y-60131120D01*
X26977250Y-59868880D01*
X26943020Y-59608884D01*
X26875148Y-59355581D01*
X26875144Y-59355571D01*
X26774796Y-59113309D01*
X26774791Y-59113299D01*
X26643674Y-58886196D01*
X26484031Y-58678148D01*
X26484024Y-58678140D01*
X26298610Y-58492726D01*
X26298601Y-58492718D01*
X26090553Y-58333075D01*
X25863450Y-58201958D01*
X25863440Y-58201953D01*
X25621178Y-58101605D01*
X25621171Y-58101603D01*
X25621169Y-58101602D01*
X25367866Y-58033730D01*
X25310089Y-58026123D01*
X25107877Y-57999500D01*
X25107870Y-57999500D01*
X24845630Y-57999500D01*
X24845622Y-57999500D01*
X24614522Y-58029926D01*
X24585634Y-58033730D01*
X24332331Y-58101602D01*
X24332321Y-58101605D01*
X24090059Y-58201953D01*
X24090049Y-58201958D01*
X23862946Y-58333075D01*
X23654898Y-58492718D01*
X23469468Y-58678148D01*
X23309825Y-58886196D01*
X23178708Y-59113299D01*
X23178703Y-59113309D01*
X23078355Y-59355571D01*
X23078352Y-59355581D01*
X23010480Y-59608884D01*
X23006676Y-59637772D01*
X22976250Y-59868872D01*
X10477250Y-59868872D01*
X10477250Y-59377844D01*
X13600000Y-59377844D01*
X13606401Y-59437372D01*
X13606403Y-59437379D01*
X13656645Y-59572086D01*
X13656649Y-59572093D01*
X13742809Y-59687187D01*
X13742812Y-59687190D01*
X13857906Y-59773350D01*
X13857913Y-59773354D01*
X13992620Y-59823596D01*
X13992627Y-59823598D01*
X14052155Y-59829999D01*
X14052172Y-59830000D01*
X15650000Y-59830000D01*
X16150000Y-59830000D01*
X17747828Y-59830000D01*
X17747844Y-59829999D01*
X17807372Y-59823598D01*
X17807379Y-59823596D01*
X17942086Y-59773354D01*
X17942088Y-59773353D01*
X17952507Y-59765554D01*
X17952509Y-59765553D01*
X18057187Y-59687190D01*
X18057190Y-59687187D01*
X18143350Y-59572093D01*
X18143354Y-59572086D01*
X18193596Y-59437379D01*
X18193598Y-59437372D01*
X18199999Y-59377844D01*
X18200000Y-59377827D01*
X18200000Y-58240000D01*
X16150000Y-58240000D01*
X16150000Y-59830000D01*
X15650000Y-59830000D01*
X15650000Y-58240000D01*
X13600000Y-58240000D01*
X13600000Y-59377844D01*
X10477250Y-59377844D01*
X10477250Y-56602155D01*
X13600000Y-56602155D01*
X13600000Y-57740000D01*
X15650000Y-57740000D01*
X16150000Y-57740000D01*
X18200000Y-57740000D01*
X18200000Y-56602172D01*
X18199999Y-56602155D01*
X18193598Y-56542627D01*
X18193596Y-56542620D01*
X18143354Y-56407913D01*
X18143350Y-56407906D01*
X18057190Y-56292812D01*
X18057187Y-56292809D01*
X17942093Y-56206649D01*
X17942086Y-56206645D01*
X17807379Y-56156403D01*
X17807372Y-56156401D01*
X17747844Y-56150000D01*
X16150000Y-56150000D01*
X16150000Y-57740000D01*
X15650000Y-57740000D01*
X15650000Y-56150000D01*
X14052155Y-56150000D01*
X13992627Y-56156401D01*
X13992620Y-56156403D01*
X13857913Y-56206645D01*
X13857906Y-56206649D01*
X13742812Y-56292809D01*
X13742809Y-56292812D01*
X13656649Y-56407906D01*
X13656645Y-56407913D01*
X13606403Y-56542620D01*
X13606401Y-56542627D01*
X13600000Y-56602155D01*
X10477250Y-56602155D01*
X10477250Y-50647127D01*
X17199500Y-50647127D01*
X17199500Y-50656942D01*
X17199500Y-50656943D01*
X17199500Y-51352870D01*
X17199501Y-51352876D01*
X17205909Y-51412485D01*
X17222654Y-51457382D01*
X17227638Y-51527074D01*
X17222655Y-51544045D01*
X17206403Y-51587620D01*
X17206401Y-51587627D01*
X17200000Y-51647155D01*
X17200000Y-51750000D01*
X17438525Y-51750000D01*
X17481858Y-51757818D01*
X17592517Y-51799091D01*
X17592516Y-51799091D01*
X17599444Y-51799835D01*
X17652127Y-51805500D01*
X19747872Y-51805499D01*
X19807483Y-51799091D01*
X19918142Y-51757818D01*
X19961475Y-51750000D01*
X20200000Y-51750000D01*
X20213181Y-51736819D01*
X20274504Y-51703334D01*
X20300862Y-51700500D01*
X35658481Y-51700500D01*
X35725520Y-51720185D01*
X35746162Y-51736819D01*
X40263181Y-56253838D01*
X40296666Y-56315161D01*
X40299500Y-56341519D01*
X40299500Y-65428130D01*
X40279815Y-65495169D01*
X40227011Y-65540924D01*
X40214505Y-65545836D01*
X40080666Y-65590186D01*
X40080663Y-65590187D01*
X39931342Y-65682289D01*
X39807289Y-65806342D01*
X39711551Y-65961559D01*
X39659603Y-66008283D01*
X39590640Y-66019506D01*
X39526558Y-65991662D01*
X39518331Y-65984143D01*
X39379464Y-65845276D01*
X39379459Y-65845272D01*
X39207557Y-65720379D01*
X39018215Y-65623903D01*
X38816124Y-65558241D01*
X38750000Y-65547768D01*
X38750000Y-66595854D01*
X38683343Y-66557370D01*
X38562535Y-66525000D01*
X38437465Y-66525000D01*
X38316657Y-66557370D01*
X38250000Y-66595854D01*
X38250000Y-65547768D01*
X38249999Y-65547768D01*
X38183875Y-65558241D01*
X37981784Y-65623903D01*
X37792442Y-65720379D01*
X37620540Y-65845272D01*
X37620535Y-65845276D01*
X37470276Y-65995535D01*
X37470272Y-65995540D01*
X37350627Y-66160218D01*
X37295297Y-66202884D01*
X37225684Y-66208863D01*
X37163889Y-66176257D01*
X37149991Y-66160218D01*
X37030109Y-65995214D01*
X37030105Y-65995209D01*
X36879786Y-65844890D01*
X36751615Y-65751770D01*
X36708949Y-65696441D01*
X36700500Y-65651452D01*
X36700500Y-56931004D01*
X36673581Y-56795676D01*
X36673578Y-56795667D01*
X36663287Y-56770824D01*
X36663285Y-56770819D01*
X36620778Y-56668196D01*
X36620777Y-56668195D01*
X36620775Y-56668189D01*
X36544114Y-56553457D01*
X36544112Y-56553454D01*
X32446545Y-52455887D01*
X32331807Y-52379222D01*
X32204332Y-52326421D01*
X32204322Y-52326418D01*
X32068996Y-52299500D01*
X32068994Y-52299500D01*
X32068993Y-52299500D01*
X20300862Y-52299500D01*
X20233823Y-52279815D01*
X20213181Y-52263181D01*
X20200000Y-52250000D01*
X19961475Y-52250000D01*
X19918142Y-52242182D01*
X19807482Y-52200908D01*
X19807483Y-52200908D01*
X19747883Y-52194501D01*
X19747881Y-52194500D01*
X19747873Y-52194500D01*
X19747865Y-52194500D01*
X17652129Y-52194500D01*
X17652123Y-52194501D01*
X17592516Y-52200908D01*
X17481858Y-52242182D01*
X17438525Y-52250000D01*
X17200000Y-52250000D01*
X17200000Y-52352844D01*
X17206401Y-52412372D01*
X17206404Y-52412383D01*
X17222654Y-52455953D01*
X17223912Y-52473548D01*
X17230128Y-52490057D01*
X17227719Y-52525269D01*
X17225818Y-52534136D01*
X17205909Y-52587517D01*
X17199500Y-52647127D01*
X17199500Y-52656942D01*
X17199500Y-52656943D01*
X17199500Y-53352870D01*
X17199501Y-53352876D01*
X17205908Y-53412483D01*
X17222388Y-53456667D01*
X17227372Y-53526358D01*
X17222388Y-53543331D01*
X17205910Y-53587511D01*
X17205909Y-53587515D01*
X17205909Y-53587517D01*
X17199500Y-53647127D01*
X17199500Y-53647134D01*
X17199500Y-53647135D01*
X17199500Y-54352870D01*
X17199501Y-54352876D01*
X17205908Y-54412483D01*
X17222388Y-54456667D01*
X17227372Y-54526358D01*
X17222388Y-54543331D01*
X17205910Y-54587511D01*
X17205909Y-54587515D01*
X17205909Y-54587517D01*
X17199500Y-54647127D01*
X17199500Y-54647134D01*
X17199500Y-54647135D01*
X17199500Y-55352870D01*
X17199501Y-55352876D01*
X17205908Y-55412483D01*
X17256202Y-55547328D01*
X17256206Y-55547335D01*
X17342452Y-55662544D01*
X17342455Y-55662547D01*
X17457664Y-55748793D01*
X17457671Y-55748797D01*
X17592517Y-55799091D01*
X17592516Y-55799091D01*
X17599444Y-55799835D01*
X17652127Y-55805500D01*
X19747872Y-55805499D01*
X19807483Y-55799091D01*
X19942331Y-55748796D01*
X19973807Y-55725232D01*
X20039271Y-55700816D01*
X20048118Y-55700500D01*
X27658481Y-55700500D01*
X27725520Y-55720185D01*
X27746162Y-55736819D01*
X30263181Y-58253838D01*
X30296666Y-58315161D01*
X30299500Y-58341519D01*
X30299500Y-65651452D01*
X30279815Y-65718491D01*
X30248385Y-65751770D01*
X30120213Y-65844890D01*
X29969890Y-65995213D01*
X29844951Y-66167179D01*
X29748444Y-66356585D01*
X29682753Y-66558760D01*
X29659062Y-66708343D01*
X29649500Y-66768713D01*
X29649500Y-67231287D01*
X29682754Y-67441243D01*
X29709968Y-67525000D01*
X29748444Y-67643414D01*
X29844951Y-67832820D01*
X29969890Y-68004786D01*
X30120213Y-68155109D01*
X30292179Y-68280048D01*
X30292181Y-68280049D01*
X30292184Y-68280051D01*
X30481588Y-68376557D01*
X30683757Y-68442246D01*
X30893713Y-68475500D01*
X30893714Y-68475500D01*
X31106286Y-68475500D01*
X31106287Y-68475500D01*
X31316243Y-68442246D01*
X31518412Y-68376557D01*
X31707816Y-68280051D01*
X31758338Y-68243345D01*
X31879786Y-68155109D01*
X31879788Y-68155106D01*
X31879792Y-68155104D01*
X32030104Y-68004792D01*
X32149683Y-67840204D01*
X32205011Y-67797540D01*
X32274624Y-67791561D01*
X32336420Y-67824166D01*
X32350313Y-67840199D01*
X32381279Y-67882820D01*
X32469896Y-68004792D01*
X32620213Y-68155109D01*
X32792179Y-68280048D01*
X32792181Y-68280049D01*
X32792184Y-68280051D01*
X32981588Y-68376557D01*
X33183757Y-68442246D01*
X33393713Y-68475500D01*
X33393714Y-68475500D01*
X33606286Y-68475500D01*
X33606287Y-68475500D01*
X33816243Y-68442246D01*
X34018412Y-68376557D01*
X34207816Y-68280051D01*
X34258338Y-68243345D01*
X34379786Y-68155109D01*
X34379788Y-68155106D01*
X34379792Y-68155104D01*
X34530104Y-68004792D01*
X34649683Y-67840204D01*
X34705011Y-67797540D01*
X34774624Y-67791561D01*
X34836420Y-67824166D01*
X34850313Y-67840199D01*
X34881279Y-67882820D01*
X34969896Y-68004792D01*
X35120213Y-68155109D01*
X35292179Y-68280048D01*
X35292181Y-68280049D01*
X35292184Y-68280051D01*
X35481588Y-68376557D01*
X35683757Y-68442246D01*
X35893713Y-68475500D01*
X35893714Y-68475500D01*
X36106286Y-68475500D01*
X36106287Y-68475500D01*
X36316243Y-68442246D01*
X36518412Y-68376557D01*
X36707816Y-68280051D01*
X36758338Y-68243345D01*
X36879786Y-68155109D01*
X36879788Y-68155106D01*
X36879792Y-68155104D01*
X37030104Y-68004792D01*
X37149991Y-67839779D01*
X37205320Y-67797115D01*
X37274933Y-67791136D01*
X37336729Y-67823741D01*
X37350627Y-67839781D01*
X37470272Y-68004459D01*
X37470276Y-68004464D01*
X37620535Y-68154723D01*
X37620540Y-68154727D01*
X37792442Y-68279620D01*
X37981782Y-68376095D01*
X38183871Y-68441757D01*
X38250000Y-68452231D01*
X38250000Y-67404145D01*
X38316657Y-67442630D01*
X38437465Y-67475000D01*
X38562535Y-67475000D01*
X38683343Y-67442630D01*
X38750000Y-67404145D01*
X38750000Y-68452230D01*
X38816126Y-68441757D01*
X38816129Y-68441757D01*
X39018217Y-68376095D01*
X39207557Y-68279620D01*
X39379458Y-68154728D01*
X39518330Y-68015856D01*
X39579653Y-67982371D01*
X39649345Y-67987355D01*
X39705279Y-68029226D01*
X39711551Y-68038440D01*
X39715185Y-68044331D01*
X39715186Y-68044334D01*
X39807288Y-68193656D01*
X39931344Y-68317712D01*
X40080666Y-68409814D01*
X40247203Y-68464999D01*
X40349991Y-68475500D01*
X41650008Y-68475499D01*
X41752797Y-68464999D01*
X41919334Y-68409814D01*
X42068656Y-68317712D01*
X42192712Y-68193656D01*
X42284814Y-68044334D01*
X42339999Y-67877797D01*
X42350500Y-67775009D01*
X42350499Y-66224992D01*
X42348851Y-66208863D01*
X42339999Y-66122203D01*
X42339998Y-66122200D01*
X42284814Y-65955666D01*
X42192712Y-65806344D01*
X42068656Y-65682288D01*
X41919334Y-65590186D01*
X41785495Y-65545836D01*
X41728051Y-65506063D01*
X41701228Y-65441547D01*
X41700500Y-65428130D01*
X41700500Y-55931004D01*
X41673581Y-55795677D01*
X41673580Y-55795676D01*
X41673580Y-55795672D01*
X41654164Y-55748797D01*
X41620778Y-55668195D01*
X41620774Y-55668188D01*
X41617003Y-55662544D01*
X41589094Y-55620775D01*
X41544114Y-55553457D01*
X41544112Y-55553454D01*
X36446545Y-50455887D01*
X36331807Y-50379222D01*
X36204332Y-50326421D01*
X36204322Y-50326418D01*
X36068996Y-50299500D01*
X36068994Y-50299500D01*
X36068993Y-50299500D01*
X20300862Y-50299500D01*
X20233823Y-50279815D01*
X20213181Y-50263181D01*
X20200000Y-50250000D01*
X19961475Y-50250000D01*
X19918142Y-50242182D01*
X19807482Y-50200908D01*
X19807483Y-50200908D01*
X19747883Y-50194501D01*
X19747881Y-50194500D01*
X19747873Y-50194500D01*
X19747865Y-50194500D01*
X17652129Y-50194500D01*
X17652123Y-50194501D01*
X17592516Y-50200908D01*
X17481858Y-50242182D01*
X17438525Y-50250000D01*
X17200000Y-50250000D01*
X17200000Y-50352844D01*
X17206401Y-50412372D01*
X17206404Y-50412383D01*
X17222654Y-50455953D01*
X17223912Y-50473548D01*
X17230128Y-50490057D01*
X17227719Y-50525269D01*
X17225818Y-50534136D01*
X17205909Y-50587517D01*
X17199500Y-50647127D01*
X10477250Y-50647127D01*
X10477250Y-48647127D01*
X17199500Y-48647127D01*
X17199500Y-48656942D01*
X17199500Y-48656943D01*
X17199500Y-49352870D01*
X17199501Y-49352876D01*
X17205909Y-49412485D01*
X17222654Y-49457382D01*
X17227638Y-49527074D01*
X17222655Y-49544045D01*
X17206403Y-49587620D01*
X17206401Y-49587627D01*
X17200000Y-49647155D01*
X17200000Y-49750000D01*
X17438525Y-49750000D01*
X17481858Y-49757818D01*
X17592517Y-49799091D01*
X17592516Y-49799091D01*
X17599444Y-49799835D01*
X17652127Y-49805500D01*
X19747872Y-49805499D01*
X19787772Y-49801209D01*
X19801024Y-49800500D01*
X42917060Y-49800500D01*
X42984099Y-49820185D01*
X43004741Y-49836819D01*
X50613181Y-57445259D01*
X50646666Y-57506582D01*
X50649500Y-57532940D01*
X50649500Y-65724106D01*
X50629815Y-65791145D01*
X50598387Y-65824422D01*
X50570208Y-65844896D01*
X50570206Y-65844898D01*
X50570205Y-65844898D01*
X50419890Y-65995213D01*
X50294951Y-66167179D01*
X50198444Y-66356585D01*
X50132753Y-66558760D01*
X50109062Y-66708343D01*
X50099500Y-66768713D01*
X50099500Y-67281287D01*
X50107533Y-67332007D01*
X50132703Y-67490925D01*
X50132754Y-67491243D01*
X50143722Y-67525000D01*
X50198444Y-67693414D01*
X50294951Y-67882820D01*
X50419890Y-68054786D01*
X50570213Y-68205109D01*
X50742179Y-68330048D01*
X50742181Y-68330049D01*
X50742184Y-68330051D01*
X50931588Y-68426557D01*
X51133757Y-68492246D01*
X51343713Y-68525500D01*
X51343714Y-68525500D01*
X51556286Y-68525500D01*
X51556287Y-68525500D01*
X51766243Y-68492246D01*
X51968412Y-68426557D01*
X52157816Y-68330051D01*
X52227229Y-68279620D01*
X52329784Y-68205110D01*
X52329784Y-68205109D01*
X52329792Y-68205104D01*
X52468967Y-68065928D01*
X52530286Y-68032446D01*
X52599978Y-68037430D01*
X52655912Y-68079301D01*
X52662184Y-68088515D01*
X52757684Y-68243345D01*
X52881654Y-68367315D01*
X53030875Y-68459356D01*
X53030880Y-68459358D01*
X53197302Y-68514505D01*
X53197309Y-68514506D01*
X53300019Y-68524999D01*
X53699999Y-68524999D01*
X53700000Y-68524998D01*
X53700000Y-67458012D01*
X53757007Y-67490925D01*
X53884174Y-67525000D01*
X54015826Y-67525000D01*
X54142993Y-67490925D01*
X54200000Y-67458012D01*
X54200000Y-68524999D01*
X54599972Y-68524999D01*
X54599986Y-68524998D01*
X54702697Y-68514505D01*
X54869119Y-68459358D01*
X54869124Y-68459356D01*
X55018345Y-68367315D01*
X55142315Y-68243345D01*
X55234356Y-68094124D01*
X55234358Y-68094119D01*
X55289505Y-67927697D01*
X55289506Y-67927690D01*
X55299999Y-67824986D01*
X55300000Y-67824973D01*
X55300000Y-67275000D01*
X54383012Y-67275000D01*
X54415925Y-67217993D01*
X54450000Y-67090826D01*
X54450000Y-66959174D01*
X54415925Y-66832007D01*
X54383012Y-66775000D01*
X55299999Y-66775000D01*
X55299999Y-66225028D01*
X55299998Y-66225013D01*
X55289505Y-66122302D01*
X55234358Y-65955880D01*
X55234356Y-65955875D01*
X55142315Y-65806654D01*
X55018345Y-65682684D01*
X54869124Y-65590643D01*
X54869119Y-65590641D01*
X54702697Y-65535494D01*
X54702690Y-65535493D01*
X54599986Y-65525000D01*
X54200000Y-65525000D01*
X54200000Y-66591988D01*
X54142993Y-66559075D01*
X54015826Y-66525000D01*
X53884174Y-66525000D01*
X53757007Y-66559075D01*
X53700000Y-66591988D01*
X53700000Y-65525000D01*
X53300028Y-65525000D01*
X53300012Y-65525001D01*
X53197302Y-65535494D01*
X53030880Y-65590641D01*
X53030875Y-65590643D01*
X52881654Y-65682684D01*
X52757683Y-65806655D01*
X52757680Y-65806659D01*
X52662183Y-65961484D01*
X52610235Y-66008209D01*
X52541273Y-66019430D01*
X52477191Y-65991587D01*
X52468964Y-65984068D01*
X52329794Y-65844898D01*
X52329792Y-65844896D01*
X52301613Y-65824422D01*
X52258949Y-65769094D01*
X52250500Y-65724106D01*
X52250500Y-59868872D01*
X60976250Y-59868872D01*
X60976250Y-60131127D01*
X60997186Y-60290140D01*
X61010480Y-60391116D01*
X61075581Y-60634076D01*
X61078352Y-60644418D01*
X61078355Y-60644428D01*
X61178703Y-60886690D01*
X61178708Y-60886700D01*
X61309825Y-61113803D01*
X61469468Y-61321851D01*
X61469476Y-61321860D01*
X61654890Y-61507274D01*
X61654898Y-61507281D01*
X61862946Y-61666924D01*
X62090049Y-61798041D01*
X62090059Y-61798046D01*
X62332321Y-61898394D01*
X62332331Y-61898398D01*
X62585634Y-61966270D01*
X62845630Y-62000500D01*
X62845637Y-62000500D01*
X63107863Y-62000500D01*
X63107870Y-62000500D01*
X63367866Y-61966270D01*
X63621169Y-61898398D01*
X63863447Y-61798043D01*
X64090553Y-61666924D01*
X64298601Y-61507282D01*
X64298605Y-61507277D01*
X64298610Y-61507274D01*
X64484024Y-61321860D01*
X64484027Y-61321855D01*
X64484032Y-61321851D01*
X64643674Y-61113803D01*
X64774793Y-60886697D01*
X64875148Y-60644419D01*
X64943020Y-60391116D01*
X64977250Y-60131120D01*
X64977250Y-59868880D01*
X64943020Y-59608884D01*
X64875148Y-59355581D01*
X64875144Y-59355571D01*
X64774796Y-59113309D01*
X64774791Y-59113299D01*
X64643674Y-58886196D01*
X64484031Y-58678148D01*
X64484024Y-58678140D01*
X64298610Y-58492726D01*
X64298601Y-58492718D01*
X64090553Y-58333075D01*
X63863450Y-58201958D01*
X63863440Y-58201953D01*
X63621178Y-58101605D01*
X63621171Y-58101603D01*
X63621169Y-58101602D01*
X63367866Y-58033730D01*
X63310089Y-58026123D01*
X63107877Y-57999500D01*
X63107870Y-57999500D01*
X62845630Y-57999500D01*
X62845622Y-57999500D01*
X62614522Y-58029926D01*
X62585634Y-58033730D01*
X62332331Y-58101602D01*
X62332321Y-58101605D01*
X62090059Y-58201953D01*
X62090049Y-58201958D01*
X61862946Y-58333075D01*
X61654898Y-58492718D01*
X61469468Y-58678148D01*
X61309825Y-58886196D01*
X61178708Y-59113299D01*
X61178703Y-59113309D01*
X61078355Y-59355571D01*
X61078352Y-59355581D01*
X61010480Y-59608884D01*
X61006676Y-59637772D01*
X60976250Y-59868872D01*
X52250500Y-59868872D01*
X52250500Y-57071161D01*
X52250498Y-57071148D01*
X52250073Y-57069006D01*
X52219739Y-56916510D01*
X52219738Y-56916503D01*
X52159394Y-56770821D01*
X52159393Y-56770819D01*
X52159390Y-56770814D01*
X52071789Y-56639711D01*
X52071786Y-56639707D01*
X43810292Y-48378213D01*
X43810288Y-48378210D01*
X43679185Y-48290609D01*
X43679172Y-48290602D01*
X43533501Y-48230264D01*
X43533489Y-48230261D01*
X43378845Y-48199500D01*
X43378842Y-48199500D01*
X19801021Y-48199500D01*
X19787766Y-48198789D01*
X19747883Y-48194501D01*
X19747881Y-48194500D01*
X19747873Y-48194500D01*
X19747865Y-48194500D01*
X17652129Y-48194500D01*
X17652123Y-48194501D01*
X17592516Y-48200908D01*
X17481858Y-48242182D01*
X17438525Y-48250000D01*
X17200000Y-48250000D01*
X17200000Y-48352844D01*
X17206401Y-48412372D01*
X17206404Y-48412383D01*
X17222654Y-48455953D01*
X17223912Y-48473548D01*
X17230128Y-48490057D01*
X17227719Y-48525269D01*
X17225818Y-48534136D01*
X17205909Y-48587517D01*
X17199500Y-48647127D01*
X10477250Y-48647127D01*
X10477250Y-47352844D01*
X17200000Y-47352844D01*
X17206401Y-47412372D01*
X17206403Y-47412380D01*
X17222921Y-47456667D01*
X17227905Y-47526359D01*
X17222921Y-47543333D01*
X17206403Y-47587619D01*
X17206401Y-47587627D01*
X17200000Y-47647155D01*
X17200000Y-47750000D01*
X18450000Y-47750000D01*
X18950000Y-47750000D01*
X20200000Y-47750000D01*
X20200000Y-47647172D01*
X20199999Y-47647155D01*
X20193597Y-47587622D01*
X20193597Y-47587621D01*
X20177079Y-47543335D01*
X20172093Y-47473644D01*
X20177079Y-47456665D01*
X20193597Y-47412378D01*
X20193597Y-47412377D01*
X20199999Y-47352844D01*
X20200000Y-47352827D01*
X20200000Y-47250000D01*
X18950000Y-47250000D01*
X18950000Y-47750000D01*
X18450000Y-47750000D01*
X18450000Y-47250000D01*
X17200000Y-47250000D01*
X17200000Y-47352844D01*
X10477250Y-47352844D01*
X10477250Y-45647127D01*
X17199500Y-45647127D01*
X17199500Y-45656942D01*
X17199500Y-45656943D01*
X17199500Y-46352870D01*
X17199501Y-46352876D01*
X17205909Y-46412485D01*
X17222654Y-46457382D01*
X17227638Y-46527074D01*
X17222655Y-46544045D01*
X17206403Y-46587620D01*
X17206401Y-46587627D01*
X17200000Y-46647155D01*
X17200000Y-46750000D01*
X17438525Y-46750000D01*
X17481858Y-46757818D01*
X17592517Y-46799091D01*
X17592516Y-46799091D01*
X17599444Y-46799835D01*
X17652127Y-46805500D01*
X19747872Y-46805499D01*
X19787772Y-46801209D01*
X19801024Y-46800500D01*
X43617060Y-46800500D01*
X43684099Y-46820185D01*
X43704741Y-46836819D01*
X46649707Y-49781786D01*
X46649711Y-49781789D01*
X46780814Y-49869390D01*
X46780827Y-49869397D01*
X46926498Y-49929735D01*
X46926503Y-49929737D01*
X47081153Y-49960499D01*
X47081156Y-49960500D01*
X47081158Y-49960500D01*
X47238843Y-49960500D01*
X58663696Y-49960500D01*
X58730735Y-49980185D01*
X58764013Y-50011613D01*
X58855483Y-50137510D01*
X59022490Y-50304517D01*
X59213567Y-50443343D01*
X59312991Y-50494002D01*
X59424003Y-50550566D01*
X59424005Y-50550566D01*
X59424008Y-50550568D01*
X59537725Y-50587517D01*
X59648631Y-50623553D01*
X59881903Y-50660500D01*
X59881908Y-50660500D01*
X60118097Y-50660500D01*
X60351368Y-50623553D01*
X60575992Y-50550568D01*
X60786433Y-50443343D01*
X60977510Y-50304517D01*
X61144517Y-50137510D01*
X61283343Y-49946433D01*
X61390568Y-49735992D01*
X61463553Y-49511368D01*
X61500500Y-49278097D01*
X61500500Y-49041902D01*
X61463553Y-48808631D01*
X61414266Y-48656943D01*
X61390568Y-48584008D01*
X61390566Y-48584005D01*
X61390566Y-48584003D01*
X61323647Y-48452669D01*
X61283343Y-48373567D01*
X61144517Y-48182490D01*
X60977510Y-48015483D01*
X60786433Y-47876657D01*
X60575996Y-47769433D01*
X60351368Y-47696446D01*
X60118097Y-47659500D01*
X60118092Y-47659500D01*
X59881908Y-47659500D01*
X59881903Y-47659500D01*
X59648631Y-47696446D01*
X59424003Y-47769433D01*
X59213566Y-47876657D01*
X59104550Y-47955862D01*
X59022490Y-48015483D01*
X59022488Y-48015485D01*
X59022487Y-48015485D01*
X58855485Y-48182487D01*
X58855485Y-48182488D01*
X58855483Y-48182490D01*
X58820774Y-48230263D01*
X58764014Y-48308386D01*
X58708684Y-48351051D01*
X58663696Y-48359500D01*
X47542940Y-48359500D01*
X47475901Y-48339815D01*
X47455259Y-48323181D01*
X44510292Y-45378213D01*
X44510288Y-45378210D01*
X44379185Y-45290609D01*
X44379172Y-45290602D01*
X44233501Y-45230264D01*
X44233489Y-45230261D01*
X44078845Y-45199500D01*
X44078842Y-45199500D01*
X19801021Y-45199500D01*
X19787766Y-45198789D01*
X19747883Y-45194501D01*
X19747881Y-45194500D01*
X19747873Y-45194500D01*
X19747865Y-45194500D01*
X17652129Y-45194500D01*
X17652123Y-45194501D01*
X17592516Y-45200908D01*
X17481858Y-45242182D01*
X17438525Y-45250000D01*
X17200000Y-45250000D01*
X17200000Y-45352844D01*
X17206401Y-45412372D01*
X17206404Y-45412383D01*
X17222654Y-45455953D01*
X17223912Y-45473548D01*
X17230128Y-45490057D01*
X17227719Y-45525269D01*
X17225818Y-45534136D01*
X17205909Y-45587517D01*
X17199500Y-45647127D01*
X10477250Y-45647127D01*
X10477250Y-44352844D01*
X17200000Y-44352844D01*
X17206401Y-44412372D01*
X17206403Y-44412380D01*
X17222921Y-44456667D01*
X17227905Y-44526359D01*
X17222921Y-44543333D01*
X17206403Y-44587619D01*
X17206401Y-44587627D01*
X17200000Y-44647155D01*
X17200000Y-44750000D01*
X18450000Y-44750000D01*
X18950000Y-44750000D01*
X20200000Y-44750000D01*
X20200000Y-44647172D01*
X20199999Y-44647155D01*
X20193597Y-44587622D01*
X20193597Y-44587621D01*
X20177079Y-44543335D01*
X20172093Y-44473644D01*
X20177079Y-44456665D01*
X20193597Y-44412378D01*
X20193597Y-44412377D01*
X20199999Y-44352844D01*
X20200000Y-44352827D01*
X20200000Y-44250000D01*
X18950000Y-44250000D01*
X18950000Y-44750000D01*
X18450000Y-44750000D01*
X18450000Y-44250000D01*
X17200000Y-44250000D01*
X17200000Y-44352844D01*
X10477250Y-44352844D01*
X10477250Y-43961902D01*
X58499500Y-43961902D01*
X58499500Y-44198097D01*
X58536446Y-44431368D01*
X58609433Y-44655996D01*
X58657331Y-44750000D01*
X58716657Y-44866433D01*
X58855483Y-45057510D01*
X59022490Y-45224517D01*
X59213567Y-45363343D01*
X59309792Y-45412372D01*
X59424003Y-45470566D01*
X59424005Y-45470566D01*
X59424008Y-45470568D01*
X59483989Y-45490057D01*
X59648631Y-45543553D01*
X59881903Y-45580500D01*
X59881908Y-45580500D01*
X60118097Y-45580500D01*
X60351368Y-45543553D01*
X60407640Y-45525269D01*
X60575992Y-45470568D01*
X60786433Y-45363343D01*
X60977510Y-45224517D01*
X61144517Y-45057510D01*
X61283343Y-44866433D01*
X61390568Y-44655992D01*
X61463553Y-44431368D01*
X61492279Y-44250000D01*
X61500500Y-44198097D01*
X61500500Y-43961902D01*
X61463553Y-43728631D01*
X61428837Y-43621786D01*
X61390568Y-43504008D01*
X61390566Y-43504005D01*
X61390566Y-43504003D01*
X61283342Y-43293566D01*
X61144517Y-43102490D01*
X60977510Y-42935483D01*
X60786433Y-42796657D01*
X60575996Y-42689433D01*
X60351368Y-42616446D01*
X60118097Y-42579500D01*
X60118092Y-42579500D01*
X59881908Y-42579500D01*
X59881903Y-42579500D01*
X59648631Y-42616446D01*
X59424003Y-42689433D01*
X59213566Y-42796657D01*
X59104550Y-42875862D01*
X59022490Y-42935483D01*
X59022488Y-42935485D01*
X59022487Y-42935485D01*
X58855485Y-43102487D01*
X58855485Y-43102488D01*
X58855483Y-43102490D01*
X58795862Y-43184550D01*
X58716657Y-43293566D01*
X58609433Y-43504003D01*
X58536446Y-43728631D01*
X58499500Y-43961902D01*
X10477250Y-43961902D01*
X10477250Y-40647127D01*
X17199500Y-40647127D01*
X17199500Y-40656942D01*
X17199500Y-40656943D01*
X17199500Y-41352870D01*
X17199501Y-41352876D01*
X17205908Y-41412483D01*
X17222388Y-41456667D01*
X17227372Y-41526358D01*
X17222388Y-41543331D01*
X17205910Y-41587511D01*
X17205909Y-41587515D01*
X17205909Y-41587517D01*
X17199500Y-41647127D01*
X17199500Y-41647134D01*
X17199500Y-41647135D01*
X17199500Y-42352870D01*
X17199501Y-42352876D01*
X17205908Y-42412483D01*
X17222388Y-42456667D01*
X17227372Y-42526358D01*
X17222388Y-42543331D01*
X17205910Y-42587511D01*
X17205909Y-42587515D01*
X17205909Y-42587517D01*
X17199500Y-42647127D01*
X17199500Y-42647134D01*
X17199500Y-42647135D01*
X17199500Y-43352870D01*
X17199501Y-43352876D01*
X17205909Y-43412485D01*
X17222654Y-43457382D01*
X17227638Y-43527074D01*
X17222655Y-43544045D01*
X17206403Y-43587620D01*
X17206401Y-43587627D01*
X17200000Y-43647155D01*
X17200000Y-43750000D01*
X17438525Y-43750000D01*
X17481858Y-43757818D01*
X17592517Y-43799091D01*
X17592516Y-43799091D01*
X17599444Y-43799835D01*
X17652127Y-43805500D01*
X19747872Y-43805499D01*
X19787772Y-43801209D01*
X19801024Y-43800500D01*
X37378844Y-43800500D01*
X37378845Y-43800499D01*
X37533497Y-43769737D01*
X37679179Y-43709394D01*
X37810289Y-43621789D01*
X40019595Y-41412483D01*
X42321122Y-39110957D01*
X43479924Y-37952155D01*
X58500000Y-37952155D01*
X58500000Y-38750000D01*
X59509252Y-38750000D01*
X59487482Y-38787708D01*
X59450000Y-38927591D01*
X59450000Y-39072409D01*
X59487482Y-39212292D01*
X59509252Y-39250000D01*
X58500000Y-39250000D01*
X58500000Y-40047844D01*
X58506401Y-40107372D01*
X58506403Y-40107379D01*
X58556645Y-40242086D01*
X58556649Y-40242093D01*
X58642809Y-40357187D01*
X58642812Y-40357190D01*
X58757906Y-40443350D01*
X58757913Y-40443354D01*
X58892620Y-40493596D01*
X58892627Y-40493598D01*
X58952155Y-40499999D01*
X58952172Y-40500000D01*
X59750000Y-40500000D01*
X59750000Y-39490747D01*
X59787708Y-39512518D01*
X59927591Y-39550000D01*
X60072409Y-39550000D01*
X60212292Y-39512518D01*
X60250000Y-39490747D01*
X60250000Y-40500000D01*
X61047828Y-40500000D01*
X61047844Y-40499999D01*
X61107372Y-40493598D01*
X61107379Y-40493596D01*
X61242086Y-40443354D01*
X61242093Y-40443350D01*
X61357187Y-40357190D01*
X61357190Y-40357187D01*
X61443350Y-40242093D01*
X61443354Y-40242086D01*
X61493596Y-40107379D01*
X61493598Y-40107372D01*
X61499999Y-40047844D01*
X61500000Y-40047827D01*
X61500000Y-39250000D01*
X60490748Y-39250000D01*
X60512518Y-39212292D01*
X60550000Y-39072409D01*
X60550000Y-38927591D01*
X60512518Y-38787708D01*
X60490748Y-38750000D01*
X61500000Y-38750000D01*
X61500000Y-37952172D01*
X61499999Y-37952155D01*
X61493598Y-37892627D01*
X61493596Y-37892620D01*
X61443354Y-37757913D01*
X61443350Y-37757906D01*
X61357190Y-37642812D01*
X61357187Y-37642809D01*
X61242093Y-37556649D01*
X61242086Y-37556645D01*
X61107379Y-37506403D01*
X61107372Y-37506401D01*
X61047844Y-37500000D01*
X60250000Y-37500000D01*
X60250000Y-38509252D01*
X60212292Y-38487482D01*
X60072409Y-38450000D01*
X59927591Y-38450000D01*
X59787708Y-38487482D01*
X59750000Y-38509252D01*
X59750000Y-37500000D01*
X58952155Y-37500000D01*
X58892627Y-37506401D01*
X58892620Y-37506403D01*
X58757913Y-37556645D01*
X58757906Y-37556649D01*
X58642812Y-37642809D01*
X58642809Y-37642812D01*
X58556649Y-37757906D01*
X58556645Y-37757913D01*
X58506403Y-37892620D01*
X58506401Y-37892627D01*
X58500000Y-37952155D01*
X43479924Y-37952155D01*
X51563207Y-29868872D01*
X60976250Y-29868872D01*
X60976250Y-30131127D01*
X60997186Y-30290140D01*
X61010480Y-30391116D01*
X61075581Y-30634076D01*
X61078352Y-30644418D01*
X61078355Y-30644428D01*
X61178703Y-30886690D01*
X61178708Y-30886700D01*
X61309825Y-31113803D01*
X61469468Y-31321851D01*
X61469476Y-31321860D01*
X61654890Y-31507274D01*
X61654898Y-31507281D01*
X61862946Y-31666924D01*
X62090049Y-31798041D01*
X62090059Y-31798046D01*
X62332321Y-31898394D01*
X62332331Y-31898398D01*
X62585634Y-31966270D01*
X62845630Y-32000500D01*
X62845637Y-32000500D01*
X63107863Y-32000500D01*
X63107870Y-32000500D01*
X63367866Y-31966270D01*
X63621169Y-31898398D01*
X63863447Y-31798043D01*
X64090553Y-31666924D01*
X64298601Y-31507282D01*
X64298605Y-31507277D01*
X64298610Y-31507274D01*
X64484024Y-31321860D01*
X64484027Y-31321855D01*
X64484032Y-31321851D01*
X64643674Y-31113803D01*
X64774793Y-30886697D01*
X64875148Y-30644419D01*
X64943020Y-30391116D01*
X64977250Y-30131120D01*
X64977250Y-29868880D01*
X64943020Y-29608884D01*
X64875148Y-29355581D01*
X64875144Y-29355571D01*
X64774796Y-29113309D01*
X64774791Y-29113299D01*
X64643674Y-28886196D01*
X64484031Y-28678148D01*
X64484024Y-28678140D01*
X64298610Y-28492726D01*
X64298601Y-28492718D01*
X64090553Y-28333075D01*
X63863450Y-28201958D01*
X63863440Y-28201953D01*
X63621178Y-28101605D01*
X63621171Y-28101603D01*
X63621169Y-28101602D01*
X63367866Y-28033730D01*
X63310089Y-28026123D01*
X63107877Y-27999500D01*
X63107870Y-27999500D01*
X62845630Y-27999500D01*
X62845622Y-27999500D01*
X62614522Y-28029926D01*
X62585634Y-28033730D01*
X62332331Y-28101602D01*
X62332321Y-28101605D01*
X62090059Y-28201953D01*
X62090049Y-28201958D01*
X61862946Y-28333075D01*
X61654898Y-28492718D01*
X61469468Y-28678148D01*
X61309825Y-28886196D01*
X61178708Y-29113299D01*
X61178703Y-29113309D01*
X61078355Y-29355571D01*
X61078352Y-29355581D01*
X61010480Y-29608884D01*
X61008733Y-29622155D01*
X60976250Y-29868872D01*
X51563207Y-29868872D01*
X51654939Y-29777140D01*
X53121786Y-28310292D01*
X53121789Y-28310289D01*
X53209394Y-28179179D01*
X53269737Y-28033497D01*
X53274531Y-28009394D01*
X53300500Y-27878843D01*
X53300500Y-27721158D01*
X53300500Y-24275893D01*
X53320185Y-24208854D01*
X53351614Y-24175576D01*
X53379792Y-24155104D01*
X53530104Y-24004792D01*
X53530106Y-24004788D01*
X53530109Y-24004786D01*
X53655048Y-23832820D01*
X53655047Y-23832820D01*
X53655051Y-23832816D01*
X53751557Y-23643412D01*
X53817246Y-23441243D01*
X53850500Y-23231287D01*
X53850500Y-22768713D01*
X53817246Y-22558757D01*
X53751557Y-22356588D01*
X53655051Y-22167184D01*
X53655049Y-22167181D01*
X53655048Y-22167179D01*
X53530109Y-21995213D01*
X53379786Y-21844890D01*
X53207820Y-21719951D01*
X53018414Y-21623444D01*
X53018413Y-21623443D01*
X53018412Y-21623443D01*
X52816243Y-21557754D01*
X52816241Y-21557753D01*
X52816240Y-21557753D01*
X52654957Y-21532208D01*
X52606287Y-21524500D01*
X52393713Y-21524500D01*
X52345042Y-21532208D01*
X52183760Y-21557753D01*
X51981585Y-21623444D01*
X51792179Y-21719951D01*
X51620213Y-21844890D01*
X51469894Y-21995209D01*
X51469890Y-21995214D01*
X51350318Y-22159793D01*
X51294989Y-22202459D01*
X51225375Y-22208438D01*
X51163580Y-22175833D01*
X51149682Y-22159793D01*
X51030109Y-21995214D01*
X51030105Y-21995209D01*
X50879786Y-21844890D01*
X50707820Y-21719951D01*
X50518414Y-21623444D01*
X50518413Y-21623443D01*
X50518412Y-21623443D01*
X50316243Y-21557754D01*
X50316241Y-21557753D01*
X50316240Y-21557753D01*
X50154957Y-21532208D01*
X50106287Y-21524500D01*
X49893713Y-21524500D01*
X49845042Y-21532208D01*
X49683760Y-21557753D01*
X49481585Y-21623444D01*
X49292179Y-21719951D01*
X49120213Y-21844890D01*
X48969894Y-21995209D01*
X48969890Y-21995214D01*
X48850318Y-22159793D01*
X48794989Y-22202459D01*
X48725375Y-22208438D01*
X48663580Y-22175833D01*
X48649682Y-22159793D01*
X48530109Y-21995214D01*
X48530105Y-21995209D01*
X48379786Y-21844890D01*
X48207820Y-21719951D01*
X48018414Y-21623444D01*
X48018413Y-21623443D01*
X48018412Y-21623443D01*
X47816243Y-21557754D01*
X47816241Y-21557753D01*
X47816240Y-21557753D01*
X47654957Y-21532208D01*
X47606287Y-21524500D01*
X47393713Y-21524500D01*
X47345042Y-21532208D01*
X47183760Y-21557753D01*
X46981585Y-21623444D01*
X46792179Y-21719951D01*
X46620215Y-21844889D01*
X46481035Y-21984069D01*
X46419712Y-22017553D01*
X46350020Y-22012569D01*
X46294087Y-21970697D01*
X46287815Y-21961484D01*
X46192315Y-21806654D01*
X46068345Y-21682684D01*
X45919124Y-21590643D01*
X45919119Y-21590641D01*
X45752697Y-21535494D01*
X45752690Y-21535493D01*
X45649986Y-21525000D01*
X45250000Y-21525000D01*
X45250000Y-22595854D01*
X45183343Y-22557370D01*
X45062535Y-22525000D01*
X44937465Y-22525000D01*
X44816657Y-22557370D01*
X44750000Y-22595854D01*
X44750000Y-21525000D01*
X44350028Y-21525000D01*
X44350012Y-21525001D01*
X44247302Y-21535494D01*
X44080880Y-21590641D01*
X44080875Y-21590643D01*
X43931654Y-21682684D01*
X43807684Y-21806654D01*
X43715643Y-21955875D01*
X43715641Y-21955880D01*
X43660494Y-22122302D01*
X43660493Y-22122309D01*
X43650000Y-22225013D01*
X43650000Y-22750000D01*
X44595854Y-22750000D01*
X44557370Y-22816657D01*
X44525000Y-22937465D01*
X44525000Y-23062535D01*
X44557370Y-23183343D01*
X44595854Y-23250000D01*
X43650001Y-23250000D01*
X43650001Y-23774986D01*
X43660494Y-23877697D01*
X43715641Y-24044119D01*
X43715643Y-24044124D01*
X43807684Y-24193345D01*
X43931654Y-24317315D01*
X44080875Y-24409356D01*
X44080880Y-24409358D01*
X44247302Y-24464505D01*
X44247309Y-24464506D01*
X44350019Y-24474999D01*
X44749999Y-24474999D01*
X44750000Y-24474998D01*
X44750000Y-23404145D01*
X44816657Y-23442630D01*
X44937465Y-23475000D01*
X45062535Y-23475000D01*
X45183343Y-23442630D01*
X45250000Y-23404145D01*
X45250000Y-24474999D01*
X45649972Y-24474999D01*
X45649986Y-24474998D01*
X45752697Y-24464505D01*
X45919119Y-24409358D01*
X45919124Y-24409356D01*
X46068345Y-24317315D01*
X46192317Y-24193343D01*
X46287815Y-24038516D01*
X46339763Y-23991791D01*
X46408725Y-23980568D01*
X46472808Y-24008412D01*
X46481035Y-24015931D01*
X46620208Y-24155104D01*
X46648384Y-24175575D01*
X46691050Y-24230902D01*
X46699500Y-24275893D01*
X46699500Y-26117060D01*
X46679815Y-26184099D01*
X46663181Y-26204741D01*
X32704741Y-40163181D01*
X32643418Y-40196666D01*
X32617060Y-40199500D01*
X19801021Y-40199500D01*
X19787766Y-40198789D01*
X19747883Y-40194501D01*
X19747881Y-40194500D01*
X19747873Y-40194500D01*
X19747865Y-40194500D01*
X17652129Y-40194500D01*
X17652123Y-40194501D01*
X17592516Y-40200908D01*
X17481858Y-40242182D01*
X17438525Y-40250000D01*
X17200000Y-40250000D01*
X17200000Y-40352844D01*
X17206401Y-40412372D01*
X17206404Y-40412383D01*
X17222654Y-40455953D01*
X17223912Y-40473548D01*
X17230128Y-40490057D01*
X17227719Y-40525269D01*
X17225818Y-40534136D01*
X17205909Y-40587517D01*
X17199500Y-40647127D01*
X10477250Y-40647127D01*
X10477250Y-39352844D01*
X17200000Y-39352844D01*
X17206401Y-39412372D01*
X17206403Y-39412380D01*
X17222921Y-39456667D01*
X17227905Y-39526359D01*
X17222921Y-39543333D01*
X17206403Y-39587619D01*
X17206401Y-39587627D01*
X17200000Y-39647155D01*
X17200000Y-39750000D01*
X18450000Y-39750000D01*
X18950000Y-39750000D01*
X20200000Y-39750000D01*
X20200000Y-39647172D01*
X20199999Y-39647155D01*
X20193597Y-39587622D01*
X20193597Y-39587621D01*
X20177079Y-39543335D01*
X20172093Y-39473644D01*
X20177079Y-39456665D01*
X20193597Y-39412378D01*
X20193597Y-39412377D01*
X20199999Y-39352844D01*
X20200000Y-39352827D01*
X20200000Y-39250000D01*
X18950000Y-39250000D01*
X18950000Y-39750000D01*
X18450000Y-39750000D01*
X18450000Y-39250000D01*
X17200000Y-39250000D01*
X17200000Y-39352844D01*
X10477250Y-39352844D01*
X10477250Y-36352844D01*
X17200000Y-36352844D01*
X17206401Y-36412372D01*
X17206403Y-36412380D01*
X17222921Y-36456667D01*
X17227905Y-36526359D01*
X17222921Y-36543333D01*
X17206403Y-36587619D01*
X17206401Y-36587627D01*
X17200000Y-36647155D01*
X17200000Y-36750000D01*
X18450000Y-36750000D01*
X18950000Y-36750000D01*
X20200000Y-36750000D01*
X20200000Y-36647172D01*
X20199999Y-36647155D01*
X20193597Y-36587622D01*
X20193597Y-36587621D01*
X20177079Y-36543335D01*
X20172093Y-36473644D01*
X20177079Y-36456665D01*
X20193597Y-36412378D01*
X20193597Y-36412377D01*
X20199999Y-36352844D01*
X20200000Y-36352827D01*
X20200000Y-36250000D01*
X18950000Y-36250000D01*
X18950000Y-36750000D01*
X18450000Y-36750000D01*
X18450000Y-36250000D01*
X17200000Y-36250000D01*
X17200000Y-36352844D01*
X10477250Y-36352844D01*
X10477250Y-33647127D01*
X17199500Y-33647127D01*
X17199500Y-33647134D01*
X17199500Y-33647135D01*
X17199500Y-34352870D01*
X17199501Y-34352872D01*
X17205908Y-34412483D01*
X17222388Y-34456667D01*
X17227372Y-34526358D01*
X17222388Y-34543331D01*
X17205910Y-34587511D01*
X17205909Y-34587515D01*
X17205909Y-34587517D01*
X17199500Y-34647127D01*
X17199500Y-34647134D01*
X17199500Y-34647135D01*
X17199500Y-35352870D01*
X17199501Y-35352876D01*
X17205909Y-35412485D01*
X17222654Y-35457382D01*
X17227638Y-35527074D01*
X17222655Y-35544045D01*
X17206403Y-35587620D01*
X17206401Y-35587627D01*
X17200000Y-35647155D01*
X17200000Y-35750000D01*
X17438525Y-35750000D01*
X17481858Y-35757818D01*
X17592517Y-35799091D01*
X17592516Y-35799091D01*
X17599444Y-35799835D01*
X17652127Y-35805500D01*
X19747872Y-35805499D01*
X19807483Y-35799091D01*
X19918142Y-35757818D01*
X19961475Y-35750000D01*
X20200000Y-35750000D01*
X20200000Y-35647172D01*
X20199999Y-35647155D01*
X20193597Y-35587622D01*
X20193597Y-35587620D01*
X20177345Y-35544048D01*
X20172359Y-35474357D01*
X20177340Y-35457393D01*
X20194091Y-35412483D01*
X20198389Y-35372502D01*
X20225126Y-35307954D01*
X20233988Y-35298088D01*
X20513185Y-35018891D01*
X20574506Y-34985408D01*
X20576519Y-34984988D01*
X20691836Y-34962051D01*
X20873914Y-34886631D01*
X21037781Y-34777139D01*
X21377140Y-34437781D01*
X21433874Y-34352872D01*
X21486632Y-34273914D01*
X21524341Y-34182874D01*
X21562052Y-34091835D01*
X21600500Y-33898540D01*
X21600500Y-33701460D01*
X21600500Y-29868872D01*
X22976250Y-29868872D01*
X22976250Y-30131127D01*
X22997186Y-30290140D01*
X23010480Y-30391116D01*
X23075581Y-30634076D01*
X23078352Y-30644418D01*
X23078355Y-30644428D01*
X23178703Y-30886690D01*
X23178708Y-30886700D01*
X23309825Y-31113803D01*
X23469468Y-31321851D01*
X23469476Y-31321860D01*
X23654890Y-31507274D01*
X23654898Y-31507281D01*
X23862946Y-31666924D01*
X24090049Y-31798041D01*
X24090059Y-31798046D01*
X24332321Y-31898394D01*
X24332331Y-31898398D01*
X24585634Y-31966270D01*
X24845630Y-32000500D01*
X24845637Y-32000500D01*
X25107863Y-32000500D01*
X25107870Y-32000500D01*
X25367866Y-31966270D01*
X25621169Y-31898398D01*
X25863447Y-31798043D01*
X26090553Y-31666924D01*
X26298601Y-31507282D01*
X26298605Y-31507277D01*
X26298610Y-31507274D01*
X26484024Y-31321860D01*
X26484027Y-31321855D01*
X26484032Y-31321851D01*
X26643674Y-31113803D01*
X26774793Y-30886697D01*
X26875148Y-30644419D01*
X26943020Y-30391116D01*
X26977250Y-30131120D01*
X26977250Y-29868880D01*
X26943020Y-29608884D01*
X26875148Y-29355581D01*
X26875144Y-29355571D01*
X26774796Y-29113309D01*
X26774791Y-29113299D01*
X26643674Y-28886196D01*
X26484031Y-28678148D01*
X26484024Y-28678140D01*
X26298610Y-28492726D01*
X26298601Y-28492718D01*
X26090553Y-28333075D01*
X25863450Y-28201958D01*
X25863440Y-28201953D01*
X25621178Y-28101605D01*
X25621171Y-28101603D01*
X25621169Y-28101602D01*
X25367866Y-28033730D01*
X25310089Y-28026123D01*
X25107877Y-27999500D01*
X25107870Y-27999500D01*
X24845630Y-27999500D01*
X24845622Y-27999500D01*
X24614522Y-28029926D01*
X24585634Y-28033730D01*
X24332331Y-28101602D01*
X24332321Y-28101605D01*
X24090059Y-28201953D01*
X24090049Y-28201958D01*
X23862946Y-28333075D01*
X23654898Y-28492718D01*
X23469468Y-28678148D01*
X23309825Y-28886196D01*
X23178708Y-29113299D01*
X23178703Y-29113309D01*
X23078355Y-29355571D01*
X23078352Y-29355581D01*
X23010480Y-29608884D01*
X23008733Y-29622155D01*
X22976250Y-29868872D01*
X21600500Y-29868872D01*
X21600500Y-25365782D01*
X21620185Y-25298743D01*
X21636819Y-25278101D01*
X22878102Y-24036819D01*
X22939425Y-24003334D01*
X22965783Y-24000500D01*
X29618942Y-24000500D01*
X29685981Y-24020185D01*
X29724479Y-24059401D01*
X29807288Y-24193656D01*
X29931344Y-24317712D01*
X30080666Y-24409814D01*
X30247203Y-24464999D01*
X30349991Y-24475500D01*
X31650008Y-24475499D01*
X31752797Y-24464999D01*
X31919334Y-24409814D01*
X32068656Y-24317712D01*
X32192712Y-24193656D01*
X32284814Y-24044334D01*
X32284814Y-24044331D01*
X32288448Y-24038441D01*
X32340395Y-23991716D01*
X32409358Y-23980493D01*
X32473440Y-24008336D01*
X32481668Y-24015856D01*
X32620535Y-24154723D01*
X32620540Y-24154727D01*
X32792442Y-24279620D01*
X32981782Y-24376095D01*
X33183871Y-24441757D01*
X33250000Y-24452231D01*
X33250000Y-23404145D01*
X33316657Y-23442630D01*
X33437465Y-23475000D01*
X33562535Y-23475000D01*
X33683343Y-23442630D01*
X33750000Y-23404145D01*
X33750000Y-24452230D01*
X33816126Y-24441757D01*
X33816129Y-24441757D01*
X34018217Y-24376095D01*
X34207557Y-24279620D01*
X34379459Y-24154727D01*
X34379464Y-24154723D01*
X34529721Y-24004466D01*
X34649371Y-23839781D01*
X34704701Y-23797115D01*
X34774314Y-23791136D01*
X34836110Y-23823741D01*
X34850008Y-23839781D01*
X34969890Y-24004785D01*
X34969894Y-24004790D01*
X34969896Y-24004792D01*
X35120208Y-24155104D01*
X35148384Y-24175575D01*
X35191050Y-24230902D01*
X35199500Y-24275893D01*
X35199500Y-26617060D01*
X35179815Y-26684099D01*
X35163181Y-26704741D01*
X24704741Y-37163181D01*
X24643418Y-37196666D01*
X24617060Y-37199500D01*
X19801021Y-37199500D01*
X19787766Y-37198789D01*
X19747883Y-37194501D01*
X19747881Y-37194500D01*
X19747873Y-37194500D01*
X19747865Y-37194500D01*
X17652129Y-37194500D01*
X17652123Y-37194501D01*
X17592516Y-37200908D01*
X17481858Y-37242182D01*
X17438525Y-37250000D01*
X17200000Y-37250000D01*
X17200000Y-37352844D01*
X17206401Y-37412372D01*
X17206404Y-37412383D01*
X17222654Y-37455953D01*
X17223912Y-37473548D01*
X17230128Y-37490057D01*
X17227719Y-37525269D01*
X17225818Y-37534136D01*
X17205909Y-37587517D01*
X17199500Y-37647127D01*
X17199500Y-37656942D01*
X17199500Y-37656943D01*
X17199500Y-38352870D01*
X17199501Y-38352876D01*
X17205909Y-38412485D01*
X17222654Y-38457382D01*
X17227638Y-38527074D01*
X17222655Y-38544045D01*
X17206403Y-38587620D01*
X17206401Y-38587627D01*
X17200000Y-38647155D01*
X17200000Y-38750000D01*
X17438525Y-38750000D01*
X17481858Y-38757818D01*
X17592517Y-38799091D01*
X17592516Y-38799091D01*
X17599444Y-38799835D01*
X17652127Y-38805500D01*
X19747872Y-38805499D01*
X19787772Y-38801209D01*
X19801024Y-38800500D01*
X25078844Y-38800500D01*
X25078845Y-38800499D01*
X25233497Y-38769737D01*
X25379179Y-38709394D01*
X25510289Y-38621789D01*
X31061578Y-33070500D01*
X36621788Y-27510291D01*
X36621789Y-27510289D01*
X36709394Y-27379179D01*
X36769737Y-27233497D01*
X36800500Y-27078842D01*
X36800500Y-24275893D01*
X36820185Y-24208854D01*
X36851614Y-24175576D01*
X36879792Y-24155104D01*
X37030104Y-24004792D01*
X37030106Y-24004788D01*
X37030109Y-24004786D01*
X37155048Y-23832820D01*
X37155047Y-23832820D01*
X37155051Y-23832816D01*
X37251557Y-23643412D01*
X37317246Y-23441243D01*
X37350500Y-23231287D01*
X37350500Y-22768713D01*
X37317246Y-22558757D01*
X37251557Y-22356588D01*
X37250000Y-22353532D01*
X37211597Y-22278160D01*
X37211596Y-22278159D01*
X37184516Y-22225013D01*
X37155051Y-22167184D01*
X37122371Y-22122203D01*
X37030109Y-21995213D01*
X36879786Y-21844890D01*
X36707820Y-21719951D01*
X36518414Y-21623444D01*
X36518413Y-21623443D01*
X36518412Y-21623443D01*
X36316243Y-21557754D01*
X36316241Y-21557753D01*
X36316240Y-21557753D01*
X36154957Y-21532208D01*
X36106287Y-21524500D01*
X35893713Y-21524500D01*
X35845042Y-21532208D01*
X35683760Y-21557753D01*
X35481585Y-21623444D01*
X35292179Y-21719951D01*
X35120213Y-21844890D01*
X34969894Y-21995209D01*
X34969890Y-21995214D01*
X34850008Y-22160218D01*
X34794678Y-22202884D01*
X34725065Y-22208863D01*
X34663270Y-22176257D01*
X34649372Y-22160218D01*
X34529727Y-21995540D01*
X34529723Y-21995535D01*
X34379464Y-21845276D01*
X34379459Y-21845272D01*
X34207557Y-21720379D01*
X34018215Y-21623903D01*
X33816124Y-21558241D01*
X33750000Y-21547768D01*
X33750000Y-22595854D01*
X33683343Y-22557370D01*
X33562535Y-22525000D01*
X33437465Y-22525000D01*
X33316657Y-22557370D01*
X33250000Y-22595854D01*
X33250000Y-21547768D01*
X33249999Y-21547768D01*
X33183875Y-21558241D01*
X32981784Y-21623903D01*
X32792442Y-21720379D01*
X32620541Y-21845271D01*
X32481668Y-21984144D01*
X32420345Y-22017628D01*
X32350653Y-22012644D01*
X32294720Y-21970772D01*
X32288448Y-21961558D01*
X32192712Y-21806344D01*
X32068657Y-21682289D01*
X32068656Y-21682288D01*
X31919334Y-21590186D01*
X31752797Y-21535001D01*
X31752795Y-21535000D01*
X31650010Y-21524500D01*
X30349998Y-21524500D01*
X30349981Y-21524501D01*
X30247203Y-21535000D01*
X30247200Y-21535001D01*
X30080668Y-21590185D01*
X30080663Y-21590187D01*
X29931342Y-21682289D01*
X29807289Y-21806342D01*
X29724481Y-21940597D01*
X29672533Y-21987321D01*
X29618942Y-21999500D01*
X22401455Y-21999500D01*
X22304812Y-22018724D01*
X22208167Y-22037947D01*
X22208161Y-22037949D01*
X22154834Y-22060037D01*
X22154834Y-22060038D01*
X22101505Y-22082127D01*
X22026087Y-22113367D01*
X22026083Y-22113369D01*
X21945545Y-22167182D01*
X21945546Y-22167183D01*
X21862216Y-22222861D01*
X21862213Y-22222864D01*
X20310093Y-23774986D01*
X19962220Y-24122859D01*
X19962218Y-24122861D01*
X19909506Y-24175573D01*
X19822859Y-24262219D01*
X19713371Y-24426079D01*
X19713364Y-24426092D01*
X19637950Y-24608160D01*
X19637947Y-24608170D01*
X19599500Y-24801456D01*
X19599500Y-33070500D01*
X19579815Y-33137539D01*
X19527011Y-33183294D01*
X19475500Y-33194500D01*
X17652129Y-33194500D01*
X17652123Y-33194501D01*
X17592516Y-33200908D01*
X17457671Y-33251202D01*
X17457664Y-33251206D01*
X17342455Y-33337452D01*
X17342452Y-33337455D01*
X17256206Y-33452664D01*
X17256202Y-33452671D01*
X17205910Y-33587513D01*
X17205909Y-33587517D01*
X17199500Y-33647127D01*
X10477250Y-33647127D01*
X10477250Y-32397844D01*
X13600000Y-32397844D01*
X13606401Y-32457372D01*
X13606403Y-32457379D01*
X13656645Y-32592086D01*
X13656649Y-32592093D01*
X13742809Y-32707187D01*
X13742812Y-32707190D01*
X13857906Y-32793350D01*
X13857913Y-32793354D01*
X13992620Y-32843596D01*
X13992627Y-32843598D01*
X14052155Y-32849999D01*
X14052172Y-32850000D01*
X15650000Y-32850000D01*
X16150000Y-32850000D01*
X17747828Y-32850000D01*
X17747844Y-32849999D01*
X17807372Y-32843598D01*
X17807379Y-32843596D01*
X17942086Y-32793354D01*
X17942093Y-32793350D01*
X18057187Y-32707190D01*
X18057190Y-32707187D01*
X18143350Y-32592093D01*
X18143354Y-32592086D01*
X18193596Y-32457379D01*
X18193598Y-32457372D01*
X18199999Y-32397844D01*
X18200000Y-32397827D01*
X18200000Y-31260000D01*
X16150000Y-31260000D01*
X16150000Y-32850000D01*
X15650000Y-32850000D01*
X15650000Y-31260000D01*
X13600000Y-31260000D01*
X13600000Y-32397844D01*
X10477250Y-32397844D01*
X10477250Y-29622155D01*
X13600000Y-29622155D01*
X13600000Y-30760000D01*
X15650000Y-30760000D01*
X16150000Y-30760000D01*
X18200000Y-30760000D01*
X18200000Y-29622172D01*
X18199999Y-29622155D01*
X18193598Y-29562627D01*
X18193596Y-29562620D01*
X18143354Y-29427913D01*
X18143350Y-29427906D01*
X18057190Y-29312812D01*
X18057187Y-29312809D01*
X17942093Y-29226649D01*
X17942086Y-29226645D01*
X17807379Y-29176403D01*
X17807372Y-29176401D01*
X17747844Y-29170000D01*
X16150000Y-29170000D01*
X16150000Y-30760000D01*
X15650000Y-30760000D01*
X15650000Y-29170000D01*
X14052155Y-29170000D01*
X13992627Y-29176401D01*
X13992620Y-29176403D01*
X13857913Y-29226645D01*
X13857906Y-29226649D01*
X13742812Y-29312809D01*
X13742809Y-29312812D01*
X13656649Y-29427906D01*
X13656645Y-29427913D01*
X13606403Y-29562620D01*
X13606401Y-29562627D01*
X13600000Y-29622155D01*
X10477250Y-29622155D01*
X10477250Y-20624500D01*
X10496935Y-20557461D01*
X10549739Y-20511706D01*
X10601250Y-20500500D01*
X67352250Y-20500500D01*
X67419289Y-20520185D01*
G37*
%TD.AperFunction*%
%TD*%
D23*
X9976750Y-20000000D02*
X67976750Y-20000000D01*
X67976750Y-70000000D01*
X9976750Y-70000000D01*
X9976750Y-20000000D01*
D24*
X26476750Y-30000000D02*
G75*
G02*
X23476750Y-30000000I-1500000J0D01*
G01*
X23476750Y-30000000D02*
G75*
G02*
X26476750Y-30000000I1500000J0D01*
G01*
D23*
X26476750Y-60000000D02*
G75*
G02*
X23476750Y-60000000I-1500000J0D01*
G01*
X23476750Y-60000000D02*
G75*
G02*
X26476750Y-60000000I1500000J0D01*
G01*
D24*
X64476750Y-30000000D02*
G75*
G02*
X61476750Y-30000000I-1500000J0D01*
G01*
X61476750Y-30000000D02*
G75*
G02*
X64476750Y-30000000I1500000J0D01*
G01*
D23*
X64476750Y-60000000D02*
G75*
G02*
X61476750Y-60000000I-1500000J0D01*
G01*
X61476750Y-60000000D02*
G75*
G02*
X64476750Y-60000000I1500000J0D01*
G01*
M02*
